<svg xmlns="http://www.w3.org/2000/svg" width="60.094" height="69.681" viewBox="0 0 60.094 69.681">
  <circle id="Elipse_229" data-name="Elipse 229" cx="25" cy="25" r="25" transform="translate(10.094)" fill="#1edfe8" opacity="0.15"/>
  <g id="Grupo_8227" data-name="Grupo 8227" transform="translate(22317.625 13290.859)">
    <circle id="Elipse_21" data-name="Elipse 21" cx="23.5" cy="23.5" r="23.5" transform="translate(-22316.125 -13278.086)" fill="none" stroke="#1edfe8" stroke-linecap="round" stroke-miterlimit="10" stroke-width="3"/>
    <path id="Trazado_286" data-name="Trazado 286" d="M50.694,47.991a7.561,7.561,0,0,1,15.123,0" transform="translate(-22350.881 -13308.076)" fill="none" stroke="#1edfe8" stroke-linecap="square" stroke-miterlimit="10" stroke-width="3"/>
    <rect id="Rectángulo_55" data-name="Rectángulo 55" width="22.799" height="15.545" rx="4" transform="translate(-22304.021 -13257.434)" fill="none" stroke="#1edfe8" stroke-linecap="round" stroke-miterlimit="10" stroke-width="3"/>
    <path id="Trazado_287" data-name="Trazado 287" d="M65.286,73.659a2,2,0,1,1-2-2,2,2,0,0,1,2,2" transform="translate(-22355.984 -13322.124)" fill="#1edfe8"/>
    <path id="Trazado_5301" data-name="Trazado 5301" d="M63.286,72.659a1,1,0,1,1-1-1,1,1,0,0,1,1,1" transform="translate(-22354.984 -13323.197)" fill="#fff"/>
    <path id="Trazado_290" data-name="Trazado 290" d="M121.731,118.069v3.74h-3.822" transform="translate(-22383.268 -13344.487)" fill="none" stroke="#1edfe8" stroke-linecap="round" stroke-miterlimit="10" stroke-width="3"/>
    <path id="Trazado_5302" data-name="Trazado 5302" d="M121.731,118.069v3.74h-3.822" transform="translate(-22387.033 -13349.155)" fill="none" stroke="#1edfe8" stroke-linecap="round" stroke-miterlimit="10" stroke-width="3"/>
  </g>
</svg>
