<svg xmlns="http://www.w3.org/2000/svg" width="88.5" height="55.79" viewBox="0 0 88.5 55.79">
  <g id="Grupo_8390" data-name="Grupo 8390" transform="translate(-1514.5 -986)">
    <g id="Grupo_8231" data-name="Grupo 8231" transform="translate(1516 992.79)">
      <path id="Trazado_282" data-name="Trazado 282" d="M37.476,14.187a8.9,8.9,0,1,0,8.9-8.9A8.9,8.9,0,0,0,37.476,14.187Z" transform="translate(9.634 -5.286)" fill="none" stroke="#1edfe8" stroke-linecap="round" stroke-miterlimit="10" stroke-width="3"/>
      <path id="Trazado_283" data-name="Trazado 283" d="M50.246,74.744a13.429,13.429,0,0,0-26.859,0" transform="translate(19.195 -43.307)" fill="none" stroke="#1edfe8" stroke-linecap="round" stroke-miterlimit="10" stroke-width="3"/>
      <line id="Línea_5" data-name="Línea 5" x1="45.38" transform="translate(29.879 33.628)" fill="none" stroke="#1edfe8" stroke-linecap="round" stroke-miterlimit="10" stroke-width="3"/>
      <path id="Trazado_284" data-name="Trazado 284" d="M145.573,32.952A12.026,12.026,0,1,0,157.6,20.926,12.026,12.026,0,0,0,145.573,32.952Z" transform="translate(-139.455 -15.899)" fill="none" stroke="#1edfe8" stroke-linecap="round" stroke-miterlimit="10" stroke-width="3"/>
      <path id="Trazado_285" data-name="Trazado 285" d="M162.826,114.769a18.144,18.144,0,0,0-36.288,0" transform="translate(-126.538 -67.269)" fill="none" stroke="#1edfe8" stroke-linecap="round" stroke-miterlimit="10" stroke-width="3"/>
    </g>
    <path id="Trazado_5303" data-name="Trazado 5303" d="M25,0A25,25,0,1,1,0,25,25,25,0,0,1,25,0Z" transform="translate(1553 986)" fill="#1edfe8" opacity="0.15"/>
  </g>
</svg>
